PathFileType	4	(X/Y/Z)	/Users/itak/Documents/Research/Walk-IL/dataset/trc/00243_00009.trc
DataRate	CameraRate	NumFrames	NumMarkers	Units	OrigDataRate	OrigDataStartFrame	OrigNumFrames
100.000000	100.000000	4	53	mm	100.000000	620	827
Frame#	Time	RPSI			LPSI			L3			STRN			T10			C7			CLAV			RBAK			LBAK			LSHO			LUPA			LAEL			LAOL			LWTS			LWPS			LFRA			LIFD			LHPS			LHTS			RSHO			RUPA			RAEL			RAOL			RWTS			RWPS			RFRA			RIFD			RHTS			RHPS			RBHD			LFHD			RFHD			LBHD			LHIP			RHIP			RASI			LASI			LKNE			LTHI			LANK			LTIP			LTOE			LMT1			LHEE			RKNE			RTHI			RANK			RTIP			RTOE			RMT1			RMT5			RHEE			LMT5			
		X1	Y1	Z1	X2	Y2	Z2	X3	Y3	Z3	X4	Y4	Z4	X5	Y5	Z5	X6	Y6	Z6	X7	Y7	Z7	X8	Y8	Z8	X9	Y9	Z9	X10	Y10	Z10	X11	Y11	Z11	X12	Y12	Z12	X13	Y13	Z13	X14	Y14	Z14	X15	Y15	Z15	X16	Y16	Z16	X17	Y17	Z17	X18	Y18	Z18	X19	Y19	Z19	X20	Y20	Z20	X21	Y21	Z21	X22	Y22	Z22	X23	Y23	Z23	X24	Y24	Z24	X25	Y25	Z25	X26	Y26	Z26	X27	Y27	Z27	X28	Y28	Z28	X29	Y29	Z29	X30	Y30	Z30	X31	Y31	Z31	X32	Y32	Z32	X33	Y33	Z33	X34	Y34	Z34	X35	Y35	Z35	X36	Y36	Z36	X37	Y37	Z37	X38	Y38	Z38	X39	Y39	Z39	X40	Y40	Z40	X41	Y41	Z41	X42	Y42	Z42	X43	Y43	Z43	X44	Y44	Z44	X45	Y45	Z45	X46	Y46	Z46	X47	Y47	Z47	X48	Y48	Z48	X49	Y49	Z49	X50	Y50	Z50	X51	Y51	Z51	X52	Y52	Z52	X53	Y53	Z53	

621	6.2	582.518798828125	1014.070495605469	117.8584899902344	702.0159301757812	1023.435119628906	136.71240234375	652.71435546875	1101.874389648438	121.8407363891602	617.6334838867188	1280.870239257812	373.1296081542969	643.1404418945312	1229.465454101562	122.7385711669922	633.498779296875	1489.757446289062	188.6537475585938	618.091796875	1398.446533203125	349.4222717285156	570.5819091796875	1351.849853515625	100.6774215698242	744.3203735351562	1451.970703125	176.5405120849609	793.277099609375	1450.874755859375	269.4461364746094	876.004638671875	1336.42822265625	235.6080169677734	915.1165771484375	1129.79736328125	231.1341094970703	866.9014282226562	1115.844116210938	159.1163024902344	875.68896484375	888.4518432617188	308.4739685058594	953.3842163085938	877.9332885742188	277.2853393554688	935.9959106445312	1022.552307128906	245.3966217041016	898.5136108398438	693.0985717773438	303.0294799804688	956.6548461914062	789.4268188476562	289.1664123535156	905.4653930664062	787.3509521484375	334.5058898925781	460.2046508789062	1444.401977539062	227.8535919189453	395.5997924804688	1380.287231445312	198.4119873046875	361.9526672363281	1100.623657226562	162.1120452880859	454.1346740722656	1094.90283203125	137.0166473388672	393.2675170898438	881.026611328125	293.6769409179688	331.3759155273438	870.8606567382812	234.9775695800781	346.8366088867188	1031.61865234375	184.9482879638672	385.9118957519531	685.29248046875	301.0526733398438	370.0003051757812	759.128173828125	324.9439697265625	323.3305969238281	763.5662231445312	269.6362915039062	597.9761352539062	1653.489624023438	241.7785949707031	603.3828125	1661.32666015625	468.5419311523438	511.6139526367188	1660.228149414062	428.1543273925781	701.4473266601562	1653.122192382812	336.4956970214844	821.8513793945312	968.4419555664062	266.4117126464844	460.0427551269531	969.0438842773438	193.3854827880859	477.4102783203125	1014.31298828125	296.2353820800781	752.1221923828125	1009.01025390625	350.9347534179688	740.941162109375	513.6082153320312	440.4505920410156	786.4899291992188	642.7896728515625	391.9533081054688	750.5509643554688	27.39852714538574	485.4568481445312	755.0758666992188	284.6823120117188	462.873046875	586.4532470703125	55.4932975769043	630.9047241210938	588.5733032226562	45.79650115966797	551.466796875	739.9786376953125	35.31068801879883	405.49951171875	535.1580200195312	484.0948181152344	193.467041015625	465.440673828125	741.7574462890625	241.0239562988281	572.0110473632812	50.91991806030273	-34.08621597290039	565.209716796875	363.3714294433594	167.4177093505859	683.2890625	35.73839569091797	149.9837188720703	702.1585083007812	36.75965881347656	81.36869812011719	583.9227294921875	35.62738037109375	78.62126922607422	607.705810546875	66.59099578857422	-110.8596115112305	691.1576538085938	29.97700119018555	599.54296875	
622	6.21	583.852294921875	1014.672729492188	124.8414459228516	703.1411743164062	1024.242553710938	144.7281188964844	654.2618408203125	1102.589111328125	129.325439453125	616.4959716796875	1281.959716796875	379.8878784179688	645.1058959960938	1230.050659179688	129.9373779296875	635.2427368164062	1490.590698242188	195.2841949462891	617.3728637695312	1399.517211914062	356.0039367675781	573.435791015625	1352.5458984375	106.7320556640625	746.1885986328125	1452.65869140625	184.8511505126953	793.72314453125	1451.616821289062	278.4981079101562	876.8701171875	1336.97216796875	246.4585266113281	915.9267578125	1130.315551757812	243.6566619873047	868.7050170898438	1115.977661132812	171.0663604736328	875.98095703125	889.1263427734375	321.2430725097656	954.0745849609375	878.7464599609375	291.1044311523438	936.7811889648438	1023.205749511719	258.5800476074219	899.4280395507812	693.7940673828125	316.4332885742188	957.46142578125	790.2833251953125	303.2040710449219	905.5805053710938	788.1102294921875	347.7854614257812	461.2761840820312	1445.461181640625	232.0992889404297	397.0887451171875	1381.33349609375	201.7110290527344	364.0497741699219	1101.757568359375	164.6937408447266	456.7637329101562	1095.95849609375	141.5583038330078	391.7171020507812	881.427978515625	295.8551940917969	331.0248107910156	871.8486328125	235.5433959960938	348.299072265625	1032.792358398438	186.8658447265625	383.1730041503906	685.5523681640625	301.4854736328125	367.1189575195312	759.3234252929688	325.5833740234375	321.5355529785156	764.4058837890625	269.2030944824219	598.7518920898438	1654.551391601562	248.0410003662109	601.9627075195312	1662.150512695312	474.8742065429688	510.5274353027344	1661.080322265625	433.5611267089844	701.275146484375	1654.110473632812	343.7917785644531	821.8892822265625	969.5988159179688	275.6221618652344	460.7834777832031	969.482177734375	199.4432678222656	477.1974792480469	1015.127136230469	302.2337341308594	751.3851928710938	1010.255798339844	359.499755859375	739.3977661132812	514.3908081054688	447.4984436035156	784.9754638671875	643.7299194335938	399.7815551757812	750.4739379882812	27.51662063598633	485.7563171386719	753.9930419921875	284.686279296875	467.2294311523438	585.6137084960938	51.94948577880859	631.8883056640625	588.278076171875	43.69131851196289	552.1638793945312	739.9656372070312	35.96380996704102	405.9436645507812	534.6532592773438	484.6593933105469	200.2673492431641	465.6082458496094	742.392822265625	247.145751953125	572.1527099609375	53.47711181640625	-33.03032684326172	564.4064331054688	363.9320373535156	173.2404937744141	683.3326416015625	35.72940063476562	150.3739166259766	702.1659545898438	37.82136154174805	82.11835479736328	583.947998046875	35.7655143737793	79.18387603759766	608.03662109375	71.51619720458984	-109.273681640625	691.234130859375	28.64962959289551	600.3018188476562	
623	6.22	585.1307983398438	1015.428833007812	131.8141479492188	704.197998046875	1025.142700195312	152.7092132568359	655.7271118164062	1103.525756835938	136.7564697265625	615.3724975585938	1283.18603515625	386.6100158691406	646.9378662109375	1230.825805664062	137.1187286376953	636.9066772460938	1491.5947265625	201.9459991455078	616.6484375	1400.733642578125	362.5848083496094	576.1356811523438	1353.430786132812	112.8543472290039	747.9464111328125	1453.52978515625	193.1536254882812	794.0791015625	1452.540405273438	287.5049743652344	877.6280517578125	1337.727661132812	257.2548217773438	916.58837890625	1131.036254882812	256.1376342773438	870.35791015625	1116.3017578125	183.0024261474609	876.1277465820312	890.02734375	334.050048828125	954.6019287109375	879.7817993164062	304.9519348144531	937.4049682617188	1024.0693359375	271.74560546875	900.21142578125	694.7132568359375	329.943603515625	958.1027221679688	791.3648071289062	317.2919616699219	905.57958984375	789.1063232421875	361.1334533691406	462.3172607421875	1446.704467773438	236.4768676757812	398.5187377929688	1382.585815429688	205.1796112060547	366.1021728515625	1103.105346679688	167.3619842529297	459.2926025390625	1097.24072265625	146.1329040527344	390.2543334960938	882.1101684570312	298.0641174316406	330.8286743164062	873.067626953125	236.2546997070312	349.7482299804688	1034.174926757812	188.8490905761719	380.7356567382812	686.1171264648438	302.0736389160156	364.4791870117188	759.82275390625	326.3601379394531	319.9939880371094	765.4894409179688	268.9363708496094	599.49560546875	1655.739868164062	254.3153533935547	600.5422973632812	1663.12109375	481.1956176757812	509.4329833984375	1662.095092773438	438.968994140625	701.06640625	1655.222290039062	351.07958984375	821.925048828125	970.8159790039062	284.6742248535156	461.4963073730469	970.14208984375	205.5993041992188	477.0274658203125	1016.131652832031	308.2367248535156	750.7017822265625	1011.630920410156	367.986083984375	737.9728393554688	515.1920166015625	454.3463439941406	783.4447631835938	644.7762451171875	407.49462890625	750.4342651367188	27.68979263305664	485.9271240234375	753.0534057617188	284.7684020996094	471.2735595703125	585.09619140625	49.17502593994141	632.6791381835938	588.14306640625	42.11310958862305	552.7224731445312	739.9389038085938	36.453369140625	406.2503051757812	533.8123779296875	485.3135070800781	207.5128173828125	465.696044921875	743.235107421875	253.4094085693359	572.1433715820312	56.23770523071289	-31.76512718200684	563.2156372070312	364.6177062988281	179.4451293945312	683.3771362304688	35.72608947753906	150.7497100830078	702.15966796875	39.03422164916992	82.91889953613281	583.92578125	35.87595367431641	79.81976318359375	608.203857421875	76.84917449951172	-107.3401184082031	691.478515625	27.86436653137207	600.8707885742188	
624	6.23	586.402099609375	1016.313293457031	138.7620086669922	705.228515625	1026.105102539062	160.6727905273438	657.151123046875	1104.646728515625	144.1358642578125	614.268798828125	1284.516357421875	393.2922668457031	648.6683349609375	1231.765747070312	144.2744293212891	638.4885864257812	1492.737915039062	208.6314086914062	615.9231567382812	1402.062377929688	369.1595153808594	578.679443359375	1354.4755859375	119.0276947021484	749.5935668945312	1454.549682617188	201.4359588623047	794.3491821289062	1453.615478515625	296.4534301757812	878.2877197265625	1338.66943359375	267.9786987304688	917.1185302734375	1131.93359375	268.5632629394531	871.884765625	1116.792724609375	194.9054718017578	876.117919921875	891.1363525390625	346.8887634277344	954.9599609375	881.0126342773438	318.8308410644531	937.8756103515625	1025.115966796875	284.88525390625	900.83154296875	695.8363037109375	343.5744934082031	958.5606689453125	792.645263671875	331.4417419433594	905.4404296875	790.3230590820312	374.5561828613281	463.3250732421875	1448.093017578125	240.9882507324219	399.886474609375	1384.0087890625	208.8238220214844	368.0759582519531	1104.637573242188	170.11376953125	461.6868286132812	1098.71728515625	150.7101593017578	388.8802490234375	883.0411376953125	300.3052673339844	330.7791748046875	874.4783935546875	237.1383056640625	351.155029296875	1035.733276367188	190.9073638916016	378.6273193359375	686.9583129882812	302.8617553710938	362.105712890625	760.5968627929688	327.307373046875	318.721923828125	766.7755737304688	268.8818054199219	600.2041625976562	1657.0185546875	260.5871276855469	599.1193237304688	1664.215576171875	487.49169921875	508.3301086425781	1663.24951171875	444.3652038574219	700.8199462890625	1656.42578125	358.3443298339844	821.9566650390625	972.0492553710938	293.6109008789062	462.2083740234375	971.0103149414062	211.7892761230469	476.9006042480469	1017.307067871094	314.2091674804688	750.0601196289062	1013.084716796875	376.4200744628906	736.68115234375	515.9488525390625	460.9732360839844	781.9171752929688	645.8618774414062	415.0753479003906	750.4141235351562	27.87978553771973	486.0084228515625	752.24951171875	284.8931274414062	475.0279235839844	584.7866821289062	47.0611686706543	633.2662963867188	588.0823364257812	40.9752197265625	553.1253662109375	739.90625	36.79493713378906	406.4474487304688	532.5703125	486.0343933105469	215.1697845458984	465.6719055175781	744.277099609375	259.7686157226562	571.9776611328125	59.18867874145508	-30.28494262695312	561.5626220703125	365.4240112304688	186.0013885498047	683.408935546875	35.72980117797852	151.1165161132812	702.1257934570312	40.40330505371094	83.77260589599609	583.8626098632812	35.94522857666016	80.51972961425781	608.2006225585938	82.56559753417969	-105.0302047729492	691.7905883789062	27.49711608886719	601.2681274414062	
